<?xml version="1.0" standalone="no"?>
<!DOCTYPE svg PUBLIC "-//W3C//DTD SVG 20010904//EN"
 "http://www.w3.org/TR/2001/REC-SVG-20010904/DTD/svg10.dtd">
<svg version="1.0" xmlns="http://www.w3.org/2000/svg"
 width="225.000000pt" height="225.000000pt" viewBox="0 0 225.000000 225.000000"
 preserveAspectRatio="xMidYMid meet">

<g transform="translate(0.000000,225.000000) scale(0.100000,-0.100000)"
fill="#000000" stroke="none">
<path d="M975 2230 c-172 -28 -316 -81 -451 -168 -290 -188 -470 -483 -506
-830 -55 -527 283 -1027 795 -1176 646 -187 1312 239 1412 901 53 354 -61 701
-314 954 -149 150 -354 262 -556 304 -95 20 -296 28 -380 15z m281 -290 c110
-54 206 -187 249 -345 9 -33 18 -109 21 -170 4 -110 4 -110 -10 -60 -9 28 -15
55 -16 60 0 6 -5 3 -11 -5 -9 -12 -10 -12 -5 4 21 63 -182 252 -308 287 -89
24 -204 -27 -327 -146 -52 -50 -128 -186 -109 -193 16 -6 11 -32 -5 -32 -12 0
-15 15 -15 74 0 305 205 580 419 562 33 -3 79 -17 117 -36z m14 -370 c0 -42
23 -94 51 -114 35 -24 44 -20 44 21 0 20 5 38 11 40 19 6 34 -53 41 -161 5
-80 8 -95 16 -73 10 31 27 36 27 7 0 -11 -4 -20 -9 -20 -5 0 -13 -9 -16 -21
-4 -11 -9 -18 -13 -15 -3 3 -13 -15 -22 -42 -32 -85 -38 -97 -74 -145 -20 -26
-36 -57 -35 -70 0 -20 2 -19 11 6 10 28 29 32 34 9 1 -7 0 -8 -3 -2 -7 16 -23
1 -16 -15 4 -12 13 -8 42 16 20 18 46 48 59 68 13 20 21 27 18 16 -5 -16 3
-25 42 -45 26 -14 79 -56 117 -95 112 -111 163 -232 153 -364 -6 -80 -43 -136
-113 -171 l-50 -25 -465 0 -465 0 -48 28 c-69 41 -101 94 -105 178 -10 162 91
335 255 439 59 38 74 37 101 0 13 -18 32 -30 45 -30 28 0 54 -16 44 -27 -5 -4
-12 -1 -16 6 -5 8 -11 9 -15 3 -7 -11 21 -25 35 -16 27 16 2 69 -76 166 -7 9
-12 18 -10 20 2 2 -5 31 -16 63 -13 41 -18 49 -14 24 7 -44 -3 -72 -22 -65
-10 4 -13 -1 -10 -21 5 -38 24 -40 32 -3 4 16 11 28 16 25 12 -8 5 -48 -9 -53
-7 -2 -12 -16 -13 -30 0 -16 -3 -21 -6 -12 -3 8 -16 26 -29 40 l-24 26 19 34
c11 19 24 34 30 32 15 -3 13 8 -5 38 -13 23 -14 23 -9 3 4 -16 -1 -30 -16 -45
-12 -13 -19 -18 -16 -12 4 7 0 29 -7 50 -9 24 -15 31 -15 19 -1 -17 -3 -17
-11 -5 -13 20 -13 43 0 35 5 -3 7 0 4 8 -2 7 3 23 13 35 14 16 23 18 41 12 12
-5 22 -16 22 -25 0 -8 4 -15 8 -15 4 0 13 45 20 101 15 131 24 148 50 92 l19
-43 11 25 c11 25 66 65 88 65 6 0 14 -13 17 -29 6 -29 31 -61 47 -61 5 0 14
17 20 38 14 51 30 68 81 92 66 29 89 27 89 -10z m-487 -179 c-3 -12 -12 -21
-20 -21 -10 0 -13 6 -9 16 3 9 9 28 13 42 6 25 7 25 14 5 4 -12 5 -30 2 -42z
m717 -11 c0 -5 -5 -10 -11 -10 -5 0 -7 5 -4 10 3 6 8 10 11 10 2 0 4 -4 4 -10z
m10 -44 c0 -14 -4 -28 -10 -31 -5 -3 -7 -26 -3 -52 6 -42 5 -45 -9 -32 -9 8
-15 28 -14 47 1 19 -2 36 -6 38 -5 3 -8 14 -8 26 0 14 5 18 15 14 8 -3 15 -1
15 4 0 6 5 10 10 10 6 0 10 -11 10 -24z m7 -68 c-3 -8 -6 -5 -6 6 -1 11 2 17
5 13 3 -3 4 -12 1 -19z m-54 -52 c7 2 13 -6 14 -22 1 -19 -1 -23 -8 -13 -7 12
-9 12 -9 -1 0 -13 -1 -13 -10 0 -5 8 -9 24 -9 35 0 11 3 15 5 8 3 -7 11 -10
17 -7z m-23 -65 c1 -25 1 -26 16 -6 16 19 16 19 9 -5 -9 -30 -25 -50 -25 -31
0 11 -3 11 -17 0 -18 -15 -18 -16 4 38 4 11 3 14 -5 9 -8 -5 -12 0 -12 13 0
14 5 19 15 15 8 -4 15 -18 15 -33z m-37 -26 c-7 -21 -12 -19 -10 4 0 11 5 18
9 15 4 -3 5 -11 1 -19z m-517 -40 c9 -8 12 -20 8 -26 -4 -8 -9 -7 -15 2 -7 11
-9 10 -9 -3 0 -10 -4 -18 -10 -18 -5 0 -10 14 -10 30 0 33 13 38 36 15z m524
-9 c0 -8 -12 -28 -26 -45 -22 -27 -28 -29 -40 -17 -18 18 -8 47 13 39 12 -5
14 -3 8 7 -6 10 -4 12 8 7 11 -4 17 -1 17 8 0 8 5 15 10 15 6 0 10 -6 10 -14z
m-480 -55 c8 -16 6 -19 -15 -17 -23 1 -42 22 -30 34 3 3 5 0 5 -7 0 -7 5 -9
10 -6 6 4 7 11 4 17 -4 7 -2 8 4 4 7 -4 16 -15 22 -25z"/>
<path d="M785 1307 c-12 -20 -14 -32 -6 -59 l9 -33 1 37 c1 37 15 59 24 36 2
-7 6 -11 9 -8 3 3 -1 16 -8 29 l-12 23 -17 -25z"/>
</g>
</svg>
