<?xml version="1.0" standalone="no"?>
<!DOCTYPE svg PUBLIC "-//W3C//DTD SVG 20010904//EN"
 "http://www.w3.org/TR/2001/REC-SVG-20010904/DTD/svg10.dtd">
<svg version="1.0" xmlns="http://www.w3.org/2000/svg"
 width="180.000000pt" height="190.000000pt" viewBox="0 0 180.000000 190.000000"
 preserveAspectRatio="xMidYMid meet">

<g transform="translate(0.000000,190.000000) scale(0.100000,-0.100000)"
fill="#000000" stroke="none">
<path d="M5 1879 c2 -11 7 -29 10 -39 3 -10 1 -21 -5 -25 -7 -4 -10 -155 -10
-454 l0 -448 23 1 c19 1 22 -4 23 -35 2 -62 8 -69 63 -69 27 0 53 5 56 10 3 6
-1 10 -10 10 -13 0 -15 5 -10 18 4 9 10 29 12 43 5 25 9 27 100 38 53 6 98 9
101 6 13 -13 14 -135 1 -151 -10 -12 -10 -17 0 -23 18 -11 -100 -24 -144 -15
-33 6 -35 5 -35 -20 0 -17 -5 -26 -16 -26 -12 0 -15 6 -10 26 14 55 -77 102
-99 52 -14 -32 -42 -35 -48 -6 -2 13 -5 -14 -6 -59 l-1 -83 70 0 c63 0 71 -2
86 -25 16 -25 16 -27 -5 -46 -12 -11 -21 -32 -21 -48 0 -15 -3 -31 -8 -35 -9
-10 -9 -126 1 -126 4 0 7 -6 7 -14 0 -7 11 -21 24 -29 21 -14 24 -22 19 -59
-3 -24 -12 -53 -19 -65 -15 -24 -54 -32 -54 -10 0 8 -4 7 -10 -3 -5 -8 -17
-15 -27 -16 -10 -1 -28 -2 -40 -3 -13 0 -23 -7 -23 -15 0 -19 17 -29 31 -20 6
3 48 9 93 11 44 3 87 9 93 15 7 6 20 8 28 4 18 -7 66 10 77 27 5 8 -1 14 -14
17 -24 6 -49 61 -30 68 6 2 2 12 -9 23 -13 13 -17 24 -11 32 10 13 9 157 -1
174 -11 17 -4 122 8 127 6 2 24 2 39 -1 20 -4 25 -10 21 -21 -16 -43 -16 -115
0 -254 10 -84 21 -157 25 -163 4 -5 8 -27 8 -47 1 -42 26 -98 43 -98 6 0 9 -7
5 -15 -5 -13 19 -15 179 -15 171 0 184 1 179 18 -5 16 -5 16 9 -1 14 -16 46
-17 495 -17 539 1 488 -7 491 78 2 42 -11 72 -30 72 -17 0 -9 -30 9 -31 13 0
14 -2 2 -6 -36 -13 -51 -36 -44 -67 l6 -31 -20 21 c-11 12 -22 29 -23 39 -5
22 -29 32 -29 12 0 -8 -6 -17 -14 -20 -9 -4 -15 5 -19 30 -4 20 -12 43 -20 52
-29 34 -66 165 -70 249 -2 55 0 82 7 82 6 0 6 4 -2 8 -7 5 -16 23 -21 40 -8
25 -7 32 5 32 16 0 19 26 5 35 -5 3 -11 -3 -14 -12 -6 -28 -27 31 -27 78 0 28
-9 51 -30 81 -24 33 -30 51 -30 94 0 40 -6 62 -25 90 -28 42 -31 62 -12 88 21
28 57 13 57 -25 0 -32 11 -37 30 -14 7 9 19 14 26 11 8 -3 20 5 29 17 l15 21
1 -24 c1 -17 3 -19 6 -7 7 28 23 19 23 -13 0 -30 1 -31 35 -24 40 7 43 2 16
-32 -23 -29 -37 -139 -20 -160 9 -11 8 -14 -2 -14 -28 0 -8 -95 22 -103 15 -4
19 -14 19 -49 0 -80 25 -133 56 -121 9 3 10 13 3 36 -10 34 -13 124 -4 115 3
-3 9 -32 14 -64 7 -45 9 -51 10 -24 1 19 8 57 15 85 14 54 11 85 -9 85 -27 0
-45 -13 -45 -31 0 -25 -16 -24 -30 0 -14 28 -3 48 31 55 17 3 43 15 59 26 15
11 31 20 34 20 3 0 6 -18 6 -40 0 -45 16 -53 30 -14 16 41 12 101 -6 108 -12
5 -13 10 -6 19 6 7 14 32 18 55 6 40 6 42 -20 42 -26 0 -29 5 -27 50 0 14 -2
19 -5 13 -3 -7 -12 -13 -20 -13 -16 0 -19 -21 -4 -36 5 -5 6 -15 0 -24 -13
-21 -28 -3 -32 40 -3 27 -10 36 -29 40 -18 5 -24 12 -22 31 6 74 13 102 32
118 12 10 21 23 21 28 0 12 60 4 78 -9 14 -12 17 -32 3 -23 -5 3 -12 1 -16 -4
-3 -5 2 -14 12 -19 12 -7 19 -28 23 -64 4 -29 7 64 8 207 2 249 1 261 -18 278
-11 9 -20 14 -20 12 0 -3 -11 1 -24 10 -13 9 -38 14 -57 13 -25 -2 -34 1 -37
15 -3 16 -1 17 16 8 12 -6 31 -11 43 -11 12 0 30 -7 40 -16 15 -14 19 -13 38
14 28 40 31 155 4 145 -13 -5 -15 -3 -8 13 4 10 8 28 9 39 1 19 -5 20 -94 21
-52 0 -105 5 -116 12 -24 13 -109 3 -109 -13 0 -6 19 -11 43 -13 33 -2 41 -6
33 -16 -13 -16 -3 -56 15 -56 8 0 14 -5 14 -10 0 -14 -46 -60 -59 -60 -21 0
-22 22 -2 41 12 11 21 29 21 39 0 31 -69 27 -92 -4 -17 -23 -17 -24 7 -30 28
-7 51 -41 35 -51 -20 -12 -9 -21 26 -21 33 0 66 -25 44 -32 -6 -2 -10 -10 -10
-18 0 -9 -5 -12 -12 -8 -15 10 -98 15 -110 8 -14 -9 12 -34 34 -34 11 0 16 -5
13 -11 -4 -6 -26 -8 -52 -5 -41 4 -49 2 -74 -25 -15 -16 -34 -29 -43 -29 -22
0 -20 13 5 28 12 8 19 20 16 31 -3 14 1 16 27 13 17 -3 27 -1 23 4 -13 14 -40
15 -95 3 -65 -15 -83 -3 -49 32 13 13 26 32 30 41 8 22 72 35 92 18 16 -13 38
-4 32 13 -2 7 0 20 5 30 7 14 4 17 -19 17 -42 0 -107 -20 -116 -36 -18 -32
-39 -14 -52 46 -2 8 -9 16 -14 18 -30 10 -4 20 52 19 34 -1 50 -3 35 -5 -14
-2 -32 -10 -40 -19 -12 -14 -7 -15 47 -9 69 9 125 32 125 52 0 16 -33 19 -145
15 -55 -2 -74 1 -84 13 -8 9 -29 16 -50 16 -44 0 -66 13 -58 33 11 28 -16 37
-113 37 -79 0 -97 -3 -97 -15 0 -17 53 -21 59 -4 4 12 38 1 38 -12 0 -4 -15
-11 -34 -15 -19 -3 -42 -15 -52 -25 -18 -20 -44 -26 -44 -9 0 6 -9 19 -20 30
-11 11 -17 26 -14 35 5 11 -1 15 -24 15 -18 0 -32 -6 -36 -16 -4 -11 -14 -15
-31 -12 -13 3 -22 1 -19 -3 3 -5 12 -9 20 -9 8 0 14 -8 14 -19 0 -14 -6 -17
-25 -13 -14 2 -25 9 -24 16 1 6 -2 21 -6 34 -7 19 -14 22 -66 22 -33 0 -59 -2
-59 -5 0 -3 9 -15 20 -27 14 -15 17 -25 10 -33 -8 -10 -18 -6 -40 15 -17 16
-30 33 -30 39 0 8 -73 11 -244 11 -243 0 -245 0 -241 -21z m475 -39 c0 -5 -2
-10 -4 -10 -3 0 -8 5 -11 10 -3 6 -1 10 4 10 6 0 11 -4 11 -10z m637 -36 c-3
-3 -12 -4 -19 -1 -8 3 -5 6 6 6 11 1 17 -2 13 -5z m573 -34 c0 -5 -5 -10 -11
-10 -5 0 -7 5 -4 10 3 6 8 10 11 10 2 0 4 -4 4 -10z m-1370 -51 c0 -10 -49
-21 -61 -13 -6 4 -4 13 6 24 14 16 21 17 36 7 10 -6 19 -15 19 -18z m1348 16
c16 -5 22 -12 17 -23 -3 -8 0 -19 7 -24 11 -6 11 -8 0 -8 -22 0 -82 29 -82 39
0 6 -8 11 -17 12 -15 0 -15 2 2 9 20 8 29 8 73 -5z m-1143 -26 c0 -8 -11 -15
-25 -15 -13 -1 -26 -7 -28 -13 -3 -8 -19 -9 -52 -5 -30 4 -50 2 -54 -5 -13
-21 -36 -12 -36 14 0 16 6 25 15 25 8 0 15 5 15 11 0 8 13 10 38 6 20 -3 46
-2 57 2 27 11 70 -2 70 -20z m119 -5 c20 -8 21 -28 1 -44 -12 -10 -16 -8 -24
11 -13 34 -6 44 23 33z m-342 -41 c22 -20 26 -52 3 -33 -11 9 -18 8 -36 -9
-13 -12 -26 -21 -31 -21 -12 0 -10 18 3 25 5 4 14 18 19 31 11 28 17 30 42 7z
m348 -33 c0 -6 10 -15 23 -21 20 -9 19 -9 -6 -4 -19 4 -29 1 -33 -10 -4 -8
-15 -15 -25 -15 -17 0 -18 3 -7 23 19 34 48 50 48 27z m-430 -39 c0 -3 -10
-12 -21 -19 -30 -19 -51 2 -24 22 18 13 45 12 45 -3z m902 -18 c38 -23 64 -66
73 -122 6 -35 9 -41 17 -28 26 47 42 -7 27 -89 -6 -33 -17 -62 -24 -66 -7 -4
-16 -23 -19 -41 -6 -31 -19 -52 -73 -116 -19 -23 -28 -26 -92 -26 -68 0 -72 2
-143 51 -62 43 -76 58 -95 105 l-23 54 3 -39 c3 -48 -14 -56 -46 -22 -33 35
-53 107 -38 135 10 18 15 19 36 9 14 -6 25 -15 25 -20 0 -4 5 -8 10 -8 6 0 10
24 10 53 0 67 17 106 50 113 14 3 34 10 45 16 20 11 36 14 125 19 25 1 56 11
69 21 29 22 26 22 63 1z m-687 -2 c10 -17 -12 -21 -25 -6 -10 12 -10 15 3 15
9 0 18 -4 22 -9z m808 -43 c4 -10 8 -10 15 1 6 8 12 9 16 3 3 -6 1 -14 -4 -17
-15 -9 -60 3 -60 15 0 14 27 12 33 -2z m-1106 -90 c-3 -8 -6 -5 -6 6 -1 11 2
17 5 13 3 -3 4 -12 1 -19z m318 -28 c3 -5 1 -10 -4 -10 -6 0 -11 5 -11 10 0 6
2 10 4 10 3 0 8 -4 11 -10z m1224 -6 c2 -2 2 -6 -1 -9 -8 -9 -58 6 -58 16 0 8
48 2 59 -7z m-109 -8 c0 -9 -40 -13 -46 -5 -3 5 6 9 20 9 14 0 26 -2 26 -4z
m-1126 -102 c4 -11 1 -14 -11 -12 -9 2 -18 9 -21 16 -6 18 25 15 32 -4z m146
-111 c0 -9 -8 -25 -17 -35 -16 -18 -17 -18 -28 9 -10 24 -9 29 9 39 25 13 36
9 36 -13z m321 -123 c54 -28 157 -28 192 0 33 26 40 25 33 -4 -3 -13 -10 -52
-16 -87 -5 -35 -12 -77 -16 -94 -4 -24 -3 -27 6 -15 9 12 10 7 4 -20 -3 -19
-8 -38 -10 -42 -9 -14 -52 39 -56 67 -3 26 -13 35 -105 80 -56 28 -105 53
-109 58 -6 6 -17 53 -29 132 -5 30 -5 30 31 -13 20 -23 54 -52 75 -62z m-746
51 c7 -12 -12 -24 -25 -16 -11 7 -4 25 10 25 5 0 11 -4 15 -9z m69 -106 c-4
-8 -10 -13 -15 -10 -4 3 -6 12 -3 20 4 8 10 13 15 10 4 -3 6 -12 3 -20z m418
-30 c6 -14 17 -25 25 -25 7 0 13 -3 13 -7 0 -9 -94 -58 -130 -68 -36 -10 -100
-47 -100 -58 0 -5 -9 -22 -21 -38 -21 -30 -41 -39 -38 -16 1 6 -1 19 -5 28 -4
9 -6 45 -4 80 l3 64 38 3 c33 3 37 1 37 -21 0 -37 38 -52 83 -33 30 12 37 20
37 43 0 30 24 73 41 73 5 0 15 -11 21 -25z m610 -57 c2 -20 8 -32 16 -30 6 1
12 -2 12 -8 0 -12 -3 -12 -24 -4 -9 3 -16 12 -16 20 0 8 -7 14 -16 14 -10 0
-14 -6 -10 -15 3 -8 2 -15 -2 -15 -15 0 -40 25 -47 48 -6 20 -3 22 39 22 43 0
45 -1 48 -32z m-142 -308 c0 -11 -4 -20 -10 -20 -5 0 -10 9 -10 20 0 11 5 20
10 20 6 0 10 -9 10 -20z m10 -221 c0 -11 -4 -17 -10 -14 -5 3 -10 13 -10 21 0
8 5 14 10 14 6 0 10 -9 10 -21z m-3 -205 c-9 -9 -28 6 -21 18 4 6 10 6 17 -1
6 -6 8 -13 4 -17z m423 -14 c0 -5 -2 -10 -4 -10 -3 0 -8 5 -11 10 -3 6 -1 10
4 10 6 0 11 -4 11 -10z m63 -135 c4 -8 2 -17 -3 -20 -6 -4 -10 3 -10 14 0 25
6 27 13 6z"/>
<path d="M1088 1463 c-21 -8 -38 -22 -38 -30 0 -8 6 -13 13 -10 7 3 19 -4 26
-16 13 -20 14 -20 28 -1 11 13 17 15 20 6 3 -6 9 -10 14 -6 17 10 -2 24 -34
25 -30 0 -31 1 -9 10 13 5 35 6 48 3 29 -7 32 11 5 26 -25 13 -28 12 -73 -7z"/>
<path d="M854 1440 c-45 -18 -30 -25 47 -22 84 4 103 15 42 26 -48 7 -63 7
-89 -4z"/>
<path d="M863 1403 c-7 -2 -13 -9 -13 -15 0 -6 7 -7 16 -4 9 4 22 1 30 -4 9
-9 15 -6 24 9 10 19 8 21 -17 20 -15 0 -34 -3 -40 -6z"/>
<path d="M995 1280 c-3 -5 1 -10 10 -10 9 0 13 5 10 10 -3 6 -8 10 -10 10 -2
0 -7 -4 -10 -10z"/>
<path d="M1025 1242 c-5 -6 -30 -17 -55 -25 -52 -17 -67 -45 -23 -41 15 2 48
7 73 13 43 10 43 10 8 8 -23 -2 -34 1 -29 6 5 5 31 11 58 13 26 2 42 1 36 -2
-25 -11 -13 -26 15 -19 34 8 49 22 37 34 -15 14 -109 23 -120 13z"/>
<path d="M1010 1150 c-11 -7 -6 -10 22 -10 20 0 40 5 43 10 8 13 -45 13 -65 0z"/>
<path d="M1375 1600 c4 -6 11 -8 16 -5 14 9 11 15 -7 15 -8 0 -12 -5 -9 -10z"/>
<path d="M1540 490 c0 -14 26 -23 41 -15 8 6 7 10 -2 16 -19 12 -39 11 -39 -1z"/>
<path d="M7 224 c-4 -4 -7 -18 -7 -30 0 -22 2 -23 25 -12 15 7 24 18 23 27 -3
17 -29 26 -41 15z"/>
<path d="M0 30 c0 -5 5 -10 11 -10 5 0 7 5 4 10 -3 6 -8 10 -11 10 -2 0 -4 -4
-4 -10z"/>
</g>
</svg>
